<svg id="Layer_1" data-name="Layer 1" xmlns="http://www.w3.org/2000/svg" viewBox="0 0 2188.71 2000"><defs><style>.cls-1{fill:#fff;}</style></defs><rect class="cls-1" width="2188.71" height="2000"/><path d="M1014.11,1330.05c-1.65.79-2.37-7-2.62-18.28-.93-40.56,1.7-73.62-1.78-66.55-2.58,5-2.58,3.09-4.17-4.51-.22-1,.52-6.42,1-8.26A30.56,30.56,0,0,0,1008,1224c-.06-4.4-1.09-9.15-2.38-9.58s-2.93,3.08-4.33,2.35c-1.71-.68-2.93-5.65-3.26-14.51a10.5,10.5,0,0,1,.92-4.6c.68-.7,1.3-2.37,2-4.81.17-9.91,3.47-24.83,3.47-32.32,0-5.55-1.13-11.47,1.19-23.71.48-2.56,1-4.9,1.5-7.75.52-3.18-.3-4-.61-2.88-.54,1.86-1,3.87-1.59,6.79-1.09,5.12-1.1-.09-.08-5.3,1.13-6-.62-13.13-.52-17.24.08-3.82.35-8.13,1-13.77,4.38-37.71-.51-14.71-1.75-18.13-1.24-3.12.35-17.84-1.05-20-.3.68-.83.46-.7-1.64.11-1.64.57-4,.89-4,0,0,.07,0,.11,0,1.85-11.47,3.87-25.2,5.21-38.46-1.61,1.63-.65-13.5-1.65-16,0-.25,0-.48.06-.67-1.8,8.64-.55-4.3.36-6,2.31-13.82,1.13-21.39.29-24.26a20.83,20.83,0,0,1-1.25-8.79c.12-5.81,1-14,1-19.4-.48,1.15-.92,1.78-1.42,2.83-.63,1.27-.46-2.22.08-5,2-10.41,4.35-34.4,3.38-37.91-.68-2.38-2.63.42-2.85-5.21a26.69,26.69,0,0,1,.46-5.22c.74-4.46,1.33-9,1.61-13.24.77-11.55-.82-15.82-2.78-14.81a.6.6,0,0,1-.25.11c-.36,0,.09-3.6.49-3.91a1.49,1.49,0,0,1,.24-.14,8.34,8.34,0,0,0,1.14-3.47c-1.28-2.25-.72-15,1-26.28a16,16,0,0,1-2,.33c-.73,0-.48-5.16.5-8.68.1-.35.19-.68.28-1a21.16,21.16,0,0,0-2.11,1.53c-1.1.74-2.25,1.38-3.37.83-.82-.53-.76-6.1.28-7.47a59.57,59.57,0,0,0,6-11.11c.36-10.66,1.17-12.76,1.62-22.1-1.23-.32-.49-7.62-.25-12.18.43-8.16,0-12.63,1.43-23.31.57-4.13,1.73-11.39,1.17-12.51s-2.09,7.11-2.91,9.83c-2.78,9.38-5.29,9.72-7.73,7-.85-1-.68-5.41,0-7.45a209.94,209.94,0,0,0,6.39-30.54c1.13-8.1,1.74-14.85,1.16-19.59-.49-4-1.25-6.85-2-10.32-.4-2,.15-5.3.82-7.44-.52-3.77-2.55-2.41-3.91-2.52-1.13-.05-.88-6.07.09-8.13,2.94-7.41,1.86-20.63,2.63-30.34.36-4.67.94-9.48,1.31-14.24,0-.7.33-3.46.11-3.35-.6.3-1.33,1.9-2,2.93-1,1.5-1.18-4.11-.34-6.57.45-1.37.45-1.1,0-2.17a12,12,0,0,0-.68-1.52c-.52-1-1.07-1.88-1.66-2.77s-.7-3.69-.3-5.57a112.36,112.36,0,0,0,2.1-12.1c-.11-.16-.23-.34-.35-.49-.62-.91-.59-5.53.22-6.63,1.45-1.65,4.54-13.68,4.06-20.06-.37-4.65-2.82-1.5-4-3.34-.41-.55-.56-1.8-.46-3.64.5-8.45-1.2-11.52-3.08-9.82-.62.61-1.21-3.61-.77-5,1.37-4.66,1.92-12.65,2.58-20,.45-5.09.86-10.3,1.34-15.49a2.4,2.4,0,0,0-.84-.74c-1-.59-.73-6.09.11-6.5,2.26-1.95.39-16.69-.51-20.75a12.29,12.29,0,0,1,0-5c2.28-7.56,2-19,2.77-29.87.13-1.89.72-3.53,1.18-2.66.33.65.58.24.72-.65-.7.37-.85-3.05-.38-5,2-8.6-1.21-23.71,0-37.76.51-6.08,2.45,1.71,2.82-9.46.12-3.23.17-6.64.44-9.92.73-8.54,3.56-23.07,1.87-28.61a11.65,11.65,0,0,1,.67-6.78c-.69-11.65-5.42-27.51.38-41.73,3.09-7.6,0-9.85,2.4-68.21.1-2.48,2.15-13.51,3.62,22.27.39,9.42,1.71,26.56,1.78,28.23.35,8,.44,23.27,1.12,26.89.27,1.42-.16,3.91-.34,5.71a37.21,37.21,0,0,0,.16,11.38c.18,1.33,1.72,9.22,1,12.56.57,19.49-4.45,29,1.66,41.48.49,1,.36,3.93-.22,6-.8,2.93-.37,6.63-.71,9.94-.11,1.16-.49,3.44-.74,5.42a9.88,9.88,0,0,1,.25,2.32c1.31,2.41.7,11,.46,13.95-.08,1-.17,2-.25,3,0,.19,0,.39,0,.58s-.08.78-.16,1.35c-.19,2.08-.41,4.18-.66,6.33a21,21,0,0,1,.08,6.7c-1,7.86-1.41,16.24.45,16,1,0,.49,5.39-.36,9,1.56-2,2.91,1,4.92,3a4.49,4.49,0,0,1,.51,2.38c.24.3.49.58.74.95,1,1.6.22,7-.84,7.27a14.45,14.45,0,0,1-.2,3.11c.38.24.63,1.43.55,3.15-.14,3.19-.48,6.4-.73,9.74a21.5,21.5,0,0,0-.1,5.2,11.47,11.47,0,0,1,.23,2.28,35.14,35.14,0,0,1-1.06,7.19c0,.28,0,.61,0,1a16.54,16.54,0,0,1-.31,5.44,21.23,21.23,0,0,1-.48,3.81c4.49,4.58,5.5-.6,4.33,10.59a9.59,9.59,0,0,1-.44,3.94q-.35,2.79-.81,5.59a18.84,18.84,0,0,1,1.31,3c3,2.91,6.06,13.49,4.7,15.94-.12,1.63-2,4.7-5,12.43.63-.7,1.36-.53,2,.19,1.35-.51,1.65,1.18,1.47,3.13.34,1,2.49,8.22,1.55,10.48s-2.08,4.92-3.42,6.11c-2.28,2-3.29,1.37-6,11.89a24.44,24.44,0,0,1-.41,3.94c1.19-3.13,2.37-5.38,3.41-5.69s.53,4.54-.36,7.52c.42.28.43,2,.18,4a18.26,18.26,0,0,1-.35,5.43,9.69,9.69,0,0,1-.1,3.12,6.68,6.68,0,0,1,1.14-.82c.34-.69,1.22-2.28,1.8-2.31,1.83-2.31,2,2.09,1.28,4.64.3,3.66-1,5.13-2,7.13a6.41,6.41,0,0,0,1.27-1.63c1.22-2,2.12,2.87.78,5.8-.71,1.7-1.44,3.39-2.17,5.26,0,.14,0,.25,0,.39-.12,1.1-.26,2.14-.44,3.16a1,1,0,0,1,.74,0c.67.35.15,4.68-.62,6.35a48.52,48.52,0,0,0-1.84,4.77,31.87,31.87,0,0,1-1.88,7.15c-.31,5.69-.57,11.92.16,13.4.32.71.26,2.95-.27,6-.72,4.25-.77,6.6-.5,8.25s-.21,5.28-1,8.55c-1,4.61-1.22,6.5-1,9a45.68,45.68,0,0,0,.64,5.84c.36,1.31.61,3.2.32,7.2-.26,3.78-1,9.14-.76,11.32.34,3.75,1.28,4,.93,11-.19,3.82-.49,7.89-.81,12.17-.33,4.47-.12,5.71.3,6.74.24.54,0,3.47-.4,6.11-1.33,9.58.35,8.54,1.09,8.61.91.09,2-.33,2.48,2.45.26,1.4-.45,5.92-1.12,8.89-.81,3.52-1.83,7.87-1.65,10.28.18,2.25.44,4.07.6,6.42a48.12,48.12,0,0,1-1.26,9.49c-2.43,10-1.62,24.45-1.32,27.11a42.47,42.47,0,0,1-.63,6.5c-2.27,14.27-.92,21.18-.49,24.15.62,4.4,1.88,6.73,1.55,16.46-.2,5.83-.9,13.3-1.77,22-1.24,12.61-.57,13.56-.47,19.14.09,5-.87,13.58-1.34,21.37-.5,8.56.54,8.26.63,13.32a71.34,71.34,0,0,1-.87,8.1c-.05,7.43,1.23,6.2,1.17,13.76,0,3.22-.23,7.38-.32,11a91.79,91.79,0,0,0,.25,9.54,288.24,288.24,0,0,1,.41,40.77c-.11,2.11-.35,4.8-.59,7.56a51.11,51.11,0,0,0-.27,8.72c.41,9.21-3.23,37.21-4.57,45.62-1.05,6.61-2.7,17.6-1.9,17.09.43-.28.92-1.09,1.24-.58.93,1.44.83,10.47,1.79,11.53a27.72,27.72,0,0,1-.32,5.31c.59,5.66.67,15,1.8,16.25s2.59-1,3.51,1.55a27.94,27.94,0,0,1-.25,4.51c-2,19.14-2.19,31.39-2.33,39.77-.59,37.74-5.34,98.8-3.17,119.82C1016,1317.22,1014.5,1329.85,1014.11,1330.05Z" transform="translate(-0.5 -0.5)"/><path d="M823.28,1290.5c-2.95-22.67,4.78-38.27,3.77-59.87-.55-11.79-4.22-25.23-6.24-36.86-2.58-14.89-3.67-15.34-10-21.27,2.76-1.18,5.17-6.09,5.64-12.62-1.15-.52-1.88-2.46-3.19-2.57,3.25-7,9.94-28.18,1.34-32.45-1.55,4.17,9.23-21.92,9.28-38-2.71-3.21-6.11-5.47-9.14-5.24-3.23-17.11-2.56-8.17,3.13-16.55,3.7-5.44,5.45-20.95.75-25.76a4.62,4.62,0,0,1,1.54-.43c-1.15-7.26-5.36-13.45-8.12-17.83,8.07,3.19,9.34-1.07,7.12-19.88-1.06-9-1.53-16.65-2.91-24.11-.47-.23-.95.1-1.38-.1,4.88-5.64,8.25-10,6.56-19.33-1.27-7-6.16-20.07-8.63-24.48,4.61-3.65-.16-18.31-.33-25.65,3.29.87,6.11-.95,8.49-6.38-.8-4.72,0-10.85-.58-14.61-1-6.84-4.35-13.32-6.55-18.51,2.25-6.28,1.39-27.25-3.59-21.85-.34-10.9,4.47-22.22,5.1-33.88,8,2.49,3.22-29.64,4.83-37.59.37.12.63.82,1,.82-2.48-6.82-12.22-23.17-11-33,.62-5.18,2.63-1.46,3.79-5.08,1.69-5.24,1-9.17,2-14.48,1.12-5.69-.07-3.39,2.1-7.28,1.39-2.49,4.32-1.54,5.94-4.61,2.89-5.48,3.88-18.78-1.75-17.65,5.82-25.15-13.3-48-6.52-55.8-10.77-25.27,11-11.43,11.17-33.1.11-16.69-5.21-35-8-50,3-8.93-4.41-22.8-7-28.95,6.15-2.61,12.85-6.63,8.08-23.6,5.39.58.53-10.84,1.23-15.82.89-6.37,5.13-7.64,7.34-12.22-1.39-6.56-7.49-14.59-6.06-23.22.62-3.75,3.77-2.58,4.87-6,2.14-6.65.48-14.22-.06-21.78-1.43-20-2-41.31-1.34-62.24.31-10.16,1.79-20.69,1.9-30.8.11-9.65-1.56-19.58-1.4-29,.17-9.75,1.38-16.74.85-27.13-.55-10.65-1-15.16,2.94-21.88a44.42,44.42,0,0,1,1.57,7.31c-.1-.3-.2-.59-.31-.86-1.53,11.37-.45,33.59.4,44.61.52,6.85,2.18,14.59,3.08,20.79,1.24,8.45,1,13.69,1.72,21.92.75,9.26,4.43,13.07,5.13,20.73.4,4.31-1.52,5.94-1.57,9.75-.05,4.28,1.12,8.12,1.25,12.22.3,9.09-4,46.54,3.59,44.09-1.05,11.23,3.31,21.31,3.57,32.53a110.48,110.48,0,0,0-5.8,10c-2.61,6.16-3.45,11.11-3.59,21.08-.25,18.57-1.45,40.07,1.61,58.18a19.94,19.94,0,0,1-1.55-1.82c1.64,2.9,3,2.57,4.8,3,.15-1.16,0-2.18.12-3.36,3.28,2.34,6.45,10.83,9.32,11.22-1.24,12,1.69,28-.71,38.46-2.8-1.44-5.87-.54-8.66-3.24-1.36,6.51,2,15,3.17,21.63-.83-1.32-2.25-1.78-3.14-3.07-1.76,10.55,4.8,29.6,6.36,39.93-1.39-.6-3.42-.59-4.89-2.39-.35.19-.78,2.4-1,3.06-.53-1-1-2.24-1.57-3.06.27,7,2.71,14.71,3.85,21.69-5.64-5.63-6.78,22.75.08,14.92,2.1,10.56-3.7,42.93,4.22,39a84.62,84.62,0,0,1-3.21,43.3c.71-1,1.47-1.72,2.16-2.73-1.79,4.85-8.23,15-6.64,16.93-4.31,7.55-1.64,32.36,4.11,32.68-2.3,2.64-2.1,4.07-2,8.22-2,4.94-2.43,21.89-3.06,28.45-.7,7.13-2.32,25.93,2,25.82-.32,2.38.9,14.42,1.23,17.78.87,8.91,3.55,12.45,5.24,21,2.73,13.78,2.68,36.47-6.11,34.39.19,8.07-3.2,4-3.7,8.64-.91,8.47,1.26,8.27,2.71,13.13,4.64,15.52,8.86,31.81.88,45-.32-.39-.66-1.46-1-1.82,1.49,11.29.59,21.67,6.75,22.94-2.56,6.33-2.53,28.09.23,35.18,2.26,5.79,7.44,3.55,10.93,10.85-3.18,4.11-5.74,12.86-8.89,15.64s-6.86-2.17-9.53,5.38c3.72-.25,12-2.67,13.4,6.86-2.62,1-6.25,7.24-6.48,13.73-.28,7.93,4.17,12.74,5.17,20.45-1.47,2.21-3.37,4.35-4.68,6.19,1.16-1.16,2.41-1.37,3.56-2-8.15,12.46-4.68,38.9-1.95,56.71-2.86-1.16-6.75,3.27-7.49,10.08,1.84-1.09,3-.1,4.78.44-3.2,2.35-4.77,10.1-2.57,16.84-12.74,19.46-2.87,31.69-2.17,57.21-5.44.33-3.78,12.9-5.53,21-1.58,7.28-7.85,15.23-4.49,24.39-4.23,12.09,1.14,35.12,1.21,47.56.08,13.6-1.22,26.72-1.34,40.23-5.08-17.15-.24-40-4.12-57.54-2.67-12.12-3.32-16.07-3.26-29.23,0-10.21-1.31-24.37,1.24-32.78a66.54,66.54,0,0,1-6.74-6c3-2.48,1.56-9.39-.4-13.38.91-4.62,1.83-11.8-.07-13.43Z" transform="translate(-0.5 -0.5)"/><path d="M1213.72,581.3c-.06.64-.1,1.28-.13,1.91-.25,5.9.42,5.14.61,10.19.16,4.53.47,3.62,0,9.12-.35,3.88-2.17,8.54-2.26,12.26-.2,8.43,5.2,20.47,7.23,28.15,2.46,9.33,2.49,9.76.25,17.26-1.61,5.41-3.62,10.66-5.42,15.73,1.66,9.32,3.8,19.66,7.11,24.17-1.95,4.92-2.58,11.62-3.66,18.12a75,75,0,0,1,7.12,14.41c-1.41,5.79-1.72,13.07-2.64,19.59-1,7-2.64,12.52-3.85,19.06.21.84.43,1.47.68,2.29-1.26,7,.76,9.11.68,15-.09,6.19-2.55,8.8-2.65,15.26-.17,11.25,3.89,22.58,6,30.54-2.78,3.71-5.08,13.89-6.85,21.27a174.34,174.34,0,0,0,7.29,23.19c-2.47,3.8-6.53,22.33-5.78,30.72.62,7,4.45,6.31,6.13,13-2.31,4.25-4.63,15.47-4.84,23.66-.23,8.82,1.76,10.5,2.75,17.25,0,.06-3,10.53-3.22,11.91,1.81,5-1,19.25-1.27,26.38-1.29,30.5,3.56,61.3,5.58,86.51,1.54,19.21-5.48,13.7-8.69,27.72-2.84,12.36,4.43,24.82,2.18,38.86-.86,5.31-3.67,7.36-3.94,14-.25,5.9,2.54,11.89,2.12,18.32-.37,5.72-1.83,5.8-1.83,12.4,0,7.3,2.19,16.71,2.81,24-2.91,11.16-3.8,18.46-4,32.73-.25,15.51-1.58,28.74-2.6,43.69-1,15.11.68,28.48-1.05,42.49a183.28,183.28,0,0,0-.58,36.47c-2.15-4.81-1.54-13.94-1.75-21-.28-9-1.26-14-2.09-22.37-.79-8.07.15-14.37.39-22.31.12-4-.1-7.4.06-11.24.18-4.51.77-8.33.61-13.21-.26-8.49-2.33-16-2.45-24.4-.31-20.21,6.85-33.8,4.18-75.22-.52-8-3.12-10.64-3.83-17.29-.72-6.82,1.93-20.27,2.69-27.42,1.2-11.24.17-18.53.44-29.5.21-8.6,2.73-15.16,4.2-22.37.36-1.8-6-30.75-7-34.34-1.07-3.8-4.9-9.19-4.84-14.43.06-4.56,4.51-14.81,5.44-18.29a83.52,83.52,0,0,0,3.16-17.05c-4-2.59-4.94-19.34-5.44-29.76-.55-11.59,2.43-14.71,3.14-27.38.57-10,.94-25.19-1.48-33.37-.83-2.82-2.42-3.81-3.13-6.3-1.32-4.61-1.95-13.6-2.52-19.34-1.07-10.74-2.11-21.42,1.83-27.19,3-4.39,6.34.06,7.64-9.42.71-5.19-.65-12-.36-17.06.23-4.09,1.2-4.39,1.41-9.51.32-8.12-1.46-21.37-2.72-28.41-1.17-6.54-1-4.54-2.84-8.77-.64-1.44-1.6-1.76-2.33-2.32,4.37-2.27,9-9.48,6.15-24-2.8,2-5.52,7.22-7.93,11.69,1.21-11.33,9.56-51.23,5.86-62.13-3.12-9.22-6,1.26-7-15.23-.6-10.42.88-15.48,2.69-24.15,1.57-7.51,4.09-18.28,3.57-27.52-.54-9.63-2.54-17.18-2.87-27.67-.45-14.87,1.88-6.33,5-17a91.3,91.3,0,0,0,2.68-20.09c-.08-13.41-3-26.43-3.39-39.87-.34-10.88-1.53-22.25-3.69-31.28,1.57-4.86,3.67-9.65,4.3-16.52,1.68-18.21-3.92-33-6.1-49.79-1.75-13.45,3.08-27.53,3.73-41.68.46-9.84-1.12-14.77-1.8-24.39-.76-10.77,1.14-13,2.45-22.36,1.53-11-.21-34.1-2-44.33,2.91,11.78,6.49.66,5.23,18.86a239.65,239.65,0,0,0-.08,36.64c1.25,14,3.38,25.62,2.87,40.67-.22,6.57-1.16,12.79-1.4,19.31-.28,7.37.35,15.05-.29,22.16,4.15,5,5.68,26.86,1.74,35.53,1.74,4.24,5.25,7.94,5.57,15.07.31,6.88-2.57,11.86-2.52,18.71,0,4.35,2.07,8.24,2.13,12.22.08,5.14-1.94,8.47-1.78,13.24.45,12.85,5,8.54,2.88,24.15C1214.91,573.39,1214.07,577.37,1213.72,581.3Z" transform="translate(-0.5 -0.5)"/><path d="M1371.63,524.88c.67,7,.38,20.48.53,30.2.21,12.44,1.93,17.84,3.7,27.84-2,5-4.66,8-6.39,13.83,1.58,8.61,4.16,16.48,5.28,25.94a34.47,34.47,0,0,0-6.16,14.58,15.47,15.47,0,0,0,1.43,2.83c-.73,3.29-1.72,6.57-2.37,10.18.94.82,1.95.57,2.9,1.24-.53,6.24-4,9.81-5.42,13.06a111.36,111.36,0,0,1,3.66,14.88c-1.4,0-4.81,10.67-5.14,15.73-.31,4.72,2.67,12.37,4,14.71-.71,2-3.4,11.41-2.63,14.44-.16-.63-.78,6.81-.71,8.09.3,5.12,2.55,8.41,3.26,11.58,1.15,5.12.2,5.29-.69,9.88,1.31,4,3.05,8.25,4.09,13.28-.38,2.32-1.42,5.11-1.61,7.67-.29,3.79.68,6.5,1.38,9.4-1.19,3.44-6.87,9.74-6.89,15.59,0,3.72,3.89,18.73,4.84,19-1.28-.43-2.49,1.31-3.64,3a36.13,36.13,0,0,0,1.52,9c-2.5,2.81-.71,12.22.48,16.66-5.56,13.37,1.57,22,4.51,27.37-1.63,1-3,7.66-4.34,11.66.61.8,1.13,3.15,1.68,3.94-3.71,3.51-2.13,19.54-.74,27.86-1.9,2.54-3.57,6.42-4.79,12.73,2.1,10,6.53,17.53,9.52,23-2.12-.93-4.32,7.4-6,11.69.86,6,2.86,10.86,2.85,18.28-2.85,4.79-8.48,21.94-3.14,32.08a26.18,26.18,0,0,1,1.82-5.71c-1.87,9.19-3.05,22.31-4.79,32.19a111.21,111.21,0,0,1,4.12,16.48c-1-3.48-3-1-4.32,1.15.76,4.91,2,9.33,2.81,14.43-6.43,10.87.62,29.52,4.52,29.4-1.79.63-3.28,8.79-4.14,14.29,1.91,3.84,3,10.45,4.21,16.69-2.56-.25-4.91,7.32-7.21,9.38a31.79,31.79,0,0,0-8.71,11.35c2.4,7.22,7,16.22,8.47,25.94-2.34-.53-4,10.92-2.21,17.88-1.68,5.85-.83,13.78.64,19,1.63,5.78,2.62,4.78,4.77,5.36-1.29,4.62-4,14.76-2.94,21.43-4.36,6.66-.07,21.79,2.06,28.38a29.82,29.82,0,0,0-3.33,7.48c1.45,9.46,3.67,18.13,5.46,26.92-8.88,12.66-3.24,21.72-2.6,35.18-3.09,2.48-1.36,41.92-1.89,52.26-.91,18-1.23,35.59-1.59,54.08-1.91-17.74-.74-37.48-.74-57.2,0-25.32-4-55.31-9.35-70.41,2,4.43,4.14,8.66,6.38,9.86.19-9.19-3.26-16.32-5.25-17.78a41.91,41.91,0,0,0,.29-16.71c-1.48-8.88-2.27-3.14-4.54-4.07.22-4.91,2.51-23.75,1.9-27.23s-6.75-3.19-8-4c.41-10.32,2.77-33.71,6.25-32.06-1.63-10.76-4.53-19.28-5.9-30.28.89-5.74,2.19-10.8,3.1-16.67-2-12-6.2-19.31-9.51-23.93,2.35-7.54,5.27-13.89,7.32-21.69-2.69-.92-6.9-.62-9-7.27,3.93-3.34,9.32-20.39,14.3-2.68-.09-13.88-1.46-29.66-2.34-43-3.1,4.32-6.69,4.15-9.9,6.41,2.36-4.84,1.88-16.4,3.18-23.49,1.15-6.29,3.76-4.51,5.35-10.16-2.91-3.64-5.71-14.55-8.67-15.88,3.74-.43,5.86-13.68,8.6-21.93-2.83,1.73-5.71,2.78-8.66,1.93,1.42-6.41,2.79-14.26,4-21.61.85-5,2.31-20,3.86-22.21,2.53-3.66,7.15,6.71,8.33,15.59.17-8.56-.69-25.71-2.39-31.22-3.33-10.85-8.31-3.71-12-7.64,1.21-3.09,3-2.59,4.42-3.41,1.69-1,3.47-3.13,5.18-2.84-1.71-2.68-3.54-5.16-5.23-8.07,1.32-3,3.83-2.36,5-7.06,1-4.09-.59-8.43-1.41-12.53,0-.18,0-.16,0,0a2.07,2.07,0,0,0,2.45-1c-.78-11.21-4.68-16.62-6.45-24.78,1.47-2.08,3.09-.7,4.55-2.77,0-2.46,2.26-26.8,1.84-27.57-3-5.57-5.92-12.87-8.91-19,2.72-4.14,4.88-15,7.6-20.6-2.31.51-4.7-2.16-7-3.38,1.48-4.77,3.23-8.39,4.58-13.88.4-1.63,3.4-19.47,3-20.6-1-2.64-2.48-3.31-3.63-4.8,1.06-3.53,1.41-9.21,2.74-11.59a62.71,62.71,0,0,0-5.13-7.7c8.27-8.09,7.51-12.7,7.25-16.8-.28-4.41-.89-8.56-1.25-12.89-.47-5.59-.4-16.23-1.33-20.8-1.34-6.61-4.8,2.74-7.3,3.15,2.82-4.07,5-11.74,6.48-22.18-1.34-2.94-2.77-5.52-4.14-8.31,1.91-7.34,6.65-1.32,9.26-6.25-.47-.79-1.06-3.29-1.74-3.9a27,27,0,0,0,3.78-14.61c-2.22-5.82-4.67-11.75-7-16.67,3.43-5.26,5.72-12.18,8.4-22.13q.06-1-.24-.81c-.22,0-.23.06,0,.11,3.49-4.46,2.41-10.06,2.68-11.54a79.84,79.84,0,0,1,3.4-12.24c-2-3.88-3.36-11.18-5.14-16.11,10.63-26.1,2.89-32.89,2.55-49.74-.31-15.11,3.83-10.55,5.4-20.61.71-4.54.39-7.24,1.26-11.65.92-4.61,2.21-6.14,2.64-12.35-.9-.76-1.67-2.6-2.26-5.36,1.88-10.71.72-27.23,1.68-39.87.46-6.1,1.45-13.28,1.47-18.69,0-6.06-.7-11.94-.61-18.55.32-24.58,1.87-46.57,1.87-71.55,0,7.88,0,17.81.33,25.5.25,6.63,1.94,11.42,2.07,18,.08,3.74-.86,7.14-.8,11.43s.91,6.3,1.13,10.19c.46,7.9-.42,17.31-.85,25.28-2.82,52.53.61,58.54.53,71.79-.06,9.49-1.24,12.05-.75,21.67.24,4.79.61,9.32.69,14.49C1370.79,529.69,1371.83,526.38,1371.63,524.88Z" transform="translate(-0.5 -0.5)"/><path d="M1339.47,1518.27c10.3-17.36,17.76-41.19,20.6-54.17,2.43-11.1,2.59-12.44-7.7-3.09-9.56,8.68-24,24.93-34.59,40.34a115.76,115.76,0,0,0-51.52-16.62c-14.25-21.82-35.08-38.88-60.8-46.21,4-18.59,4.41-40.5,3.63-52.61-.74-11.35-.95-12.68-8.26-.85-7,11.35-16.8,31.91-22.69,50.1-21.09.64-42.83,8.07-61.58,20.06-19.12-19.15-46.49-28.72-73.44-28.3a219.39,219.39,0,0,0-12.5-46.63c-4.26-10.55-4.88-11.74-8.11,1.79-2.78,11.63-5.35,31-5.77,48.63a93.05,93.05,0,0,0-22.5,9.47,85.14,85.14,0,0,0-27.67,26.72,86.7,86.7,0,0,0-14.32,19.7c-1.73-.87-3.43-1.78-5.22-2.53-24.14-10.19-49.41-6.65-70.89,4.94-8.57-19.08-26.21-40.28-36.26-50.32-8-8-9.07-8.9-6.76,4.81,2.64,15.62,10.91,43.56,20.41,61.91a108.92,108.92,0,0,0-15.22,18c-47.37,70.15-2.46,194.37,77.89,225.09a50.05,50.05,0,0,1,32.27,46.71L925.85,2000.5h349.63l-22.61-219.81a50.22,50.22,0,0,1,26.29-44C1347.74,1699.16,1409.43,1586.47,1339.47,1518.27Z" transform="translate(-0.5 -0.5)"/></svg>